Coordinates
version=1
nRows=20
nColumns=23
inDegrees=yes

Units are S.I. units (second, meters, Newtons, ...)
If the header above contains a line with 'inDegrees', this indicates whether rotational values are in degrees (yes) or radians (no).

endheader
time	pelvis_tilt	pelvis_list	pelvis_rotation	pelvis_tx	pelvis_ty	pelvis_tz	hip_flexion_r	hip_adduction_r	hip_rotation_r	knee_angle_r	knee_angle_r_beta	ankle_angle_r	subtalar_angle_r	mtp_angle_r	hip_flexion_l	hip_adduction_l	hip_rotation_l	knee_angle_l	knee_angle_l_beta	ankle_angle_l	subtalar_angle_l	mtp_angle_l
     15.00000000	     -5.58861142	    -13.54806214	     -5.23209788	      2.22524042	      1.01238875	      1.07805691	     29.18516729	     15.39800696	    -20.00818926	     31.48682907	      0.54954884	      8.99233889	      9.25548407	      0.00000000	      0.17074128	    -21.54494101	    -12.47248650	    111.04695353	      1.93813496	    -21.90639939	    -23.23256354	      0.00000000
     15.00666667	     -6.41765984	    -13.28787416	     -6.29708714	      2.22170115	      1.00607244	      1.07824360	     29.95995828	     15.04757452	    -19.67112585	     34.93098186	      0.60966064	     11.14215029	      9.64696036	      0.00000000	      3.31034441	    -21.44192658	    -11.93065348	    114.08458743	      1.99115168	    -21.31019005	    -23.95933715	      0.00000000
     15.01333333	     -6.37646076	    -13.62929766	     -7.03503969	      2.21847729	      1.00165978	      1.07804871	     29.36661890	     15.31796323	    -19.22788061	     37.51720471	      0.65479875	     13.34663903	      9.91883100	      0.00000000	      5.54624096	    -21.98421782	    -11.16891892	    116.74177564	      2.03752836	    -20.62797056	    -24.42676918	      0.00000000
     15.02000000	     -6.17972288	    -14.01237005	     -7.66691866	      2.21526479	      0.99811308	      1.07778357	     28.36475553	     15.64060258	    -18.61167476	     39.68410785	      0.69261834	     15.60381342	     10.30552119	      0.00000000	      7.73581541	    -22.56253385	    -10.25173750	    119.09288013	      2.07856287	    -19.80444152	    -24.69160654	      0.00000000
     15.02666667	     -5.59815433	    -14.50335731	     -8.16111597	      2.21207880	      0.99597060	      1.07741698	     26.62235495	     16.14486844	    -17.63580555	     41.19212591	      0.71893822	     17.73159095	     10.47109561	      0.00000000	      9.61261019	    -23.18695675	     -9.20740770	    121.05937575	      2.11288470	    -19.02066985	    -24.95241170	      0.00000000
     15.03333333	     -5.63102443	    -14.39780161	     -8.65430686	      2.20858191	      0.99355195	      1.07709113	     25.53862120	     15.94459318	    -16.78166527	     42.73983063	      0.74595077	     19.99991291	     11.51146035	      0.00000000	     12.49237665	    -23.10971191	     -8.01558451	    122.82005902	      2.14361442	    -17.98446673	    -24.83670912	      0.00000000
     15.04000000	     -5.09471444	    -14.49285148	     -8.96707363	      2.20560306	      0.99299037	      1.07683899	     23.43990772	     16.05791566	    -15.50412594	     43.46028546	      0.75852508	     21.85972185	     11.77897386	      0.00000000	     14.70360336	    -23.19979710	     -6.83966505	    124.05330065	      2.16513854	    -17.07385800	    -24.94309139	      0.00000000
     15.04666667	     -5.02085906	    -14.19786752	     -9.12543948	      2.20290030	      0.99246171	      1.07654693	     21.74799068	     15.62564169	    -14.60839781	     44.00709089	      0.76806863	     23.68722212	     12.82357273	      0.00000000	     17.65725177	    -22.74625532	     -5.46942467	    124.99253044	      2.18153120	    -15.87273660	    -24.57290652	      0.00000000
     15.05333333	     -4.72154156	    -13.85978356	     -9.08591417	      2.20080697	      0.99321462	      1.07640196	     19.53943243	     15.19153901	    -13.59036678	     43.95489005	      0.76715755	     25.09418377	     13.45695341	      0.00000000	     20.33410066	    -22.17224806	     -4.13870225	    125.45104421	      2.18953377	    -14.72315380	    -24.33002190	      0.00000000
     15.06000000	     -4.41381181	    -13.35485563	     -8.90377706	      2.19931811	      0.99479584	      1.07642717	     17.13310102	     14.60411477	    -12.58157775	     43.48259770	      0.75891450	     26.19475248	     13.87164615	      0.00000000	     22.93508820	    -21.34323210	     -2.90665748	    125.45635903	      2.18962653	    -13.60772972	    -24.19047496	      0.00000000
     15.06666667	     -4.03517215	    -12.83995960	     -8.29098220	      2.19885778	      0.99719368	      1.07614749	     14.41364417	     13.84538535	    -12.19087531	     42.50710166	      0.74188888	     26.84056624	     14.77468091	      0.00000000	     25.44965548	    -20.27565329	     -1.47667302	    125.05535379	      2.18262767	    -12.33958076	    -23.79588709	      0.00000000
     15.07333333	     -3.89198205	    -12.01123856	     -7.70440202	      2.19883564	      0.99996834	      1.07625850	     11.87112186	     12.93473141	    -11.60714501	     41.27159424	      0.72032521	     27.16238172	     14.92717858	      0.00000000	     28.02871248	    -18.86614013	     -0.38465418	    124.24777629	      2.16853278	    -11.08661928	    -23.61551196	      0.00000000
     15.08000000	     -3.68646107	    -11.22245634	     -6.66320416	      2.19976398	      1.00336233	      1.07598971	      9.06472475	     12.02138876	    -11.58982080	     39.56107055	      0.69047094	     26.94681710	     15.35607259	      0.00000000	     30.44731530	    -17.25110655	      0.87647623	    123.09288389	      2.14837611	     -9.87664249	    -23.23311161	      0.00000000
     15.08666667	     -3.06690583	    -10.49884050	     -5.41564588	      2.20177116	      1.00793026	      1.07576779	      5.52541061	     11.21079836	    -11.89145126	     37.28405366	      0.65072949	     26.30158663	     16.15712647	      0.00000000	     32.06433077	    -15.64955763	      1.95347843	    121.48570494	      2.12032555	     -8.61679859	    -22.85196045	      0.00000000
     15.09333333	     -2.99942492	     -9.47344333	     -4.21597959	      2.20390531	      1.01216560	      1.07565895	      2.62709026	     10.30339267	    -12.13041456	     34.94147606	      0.60984380	     25.00732513	     16.23994089	      0.00000000	     34.10101948	    -13.69801286	      2.73263128	    119.63550677	      2.08803350	     -7.44746082	    -22.59933446	      0.00000000
     15.10000000	     -3.14838603	     -8.32223106	     -2.94337560	      2.20654084	      1.01650463	      1.07547046	     -0.10120282	      9.38577874	    -12.54472666	     32.39009563	      0.56531381	     23.11036307	     16.05219337	      0.00000000	     36.12195016	    -11.56466129	      3.29659208	    117.49252983	      2.05063149	     -6.39140777	    -22.40756828	      0.00000000
     15.10666667	     -3.39328511	     -7.06602269	     -1.69675847	      2.20952938	      1.02105869	      1.07530229	     -2.76737046	      8.48278897	    -12.99736268	     29.67060086	      0.51784968	     20.50015488	     15.63986710	      0.00000000	     37.95904321	     -9.34099832	      3.56703274	    115.06957113	      2.00834289	     -5.40697726	    -22.26956323	      0.00000000
     15.11333333	     -4.19523770	     -5.61848065	     -0.49392414	      2.21260892	      1.02503970	      1.07493717	     -4.69346666	      7.36792065	    -13.82529507	     27.18547905	      0.47447612	     17.38569706	     15.22373332	      0.00000000	     40.18412549	     -6.89123745	      3.54596551	    112.43650919	      1.96238728	     -4.57583166	    -22.20851425	      0.00000000
     15.12000000	     -4.45527712	     -4.32341184	      0.64455524	      2.21625944	      1.03007308	      1.07482411	     -7.42156278	      6.63568435	    -14.29601358	     24.13476953	      0.42123119	     13.52593727	     14.33621054	      0.00000000	     41.46458558	     -4.79354827	      3.31212147	    109.49578603	      1.91106198	     -3.85078453	    -22.28643482	      0.00000000
     15.12666667	     -5.54721909	     -2.81542743	      1.69167775	      2.21964161	      1.03393798	      1.07436839	     -8.87898468	      5.47872891	    -15.49578277	     21.86142849	      0.38155391	      9.47139187	     13.77747833	      0.00000000	     43.50848322	     -2.43889369	      2.78186508	    106.41405723	      1.85727567	     -3.21571032	    -22.32134070	      0.00000000
